<svg width="14" height="8" viewBox="0 0 14 8" fill="none" xmlns="http://www.w3.org/2000/svg">
<g id="elements">
<path id="Icon" d="M12.3757 7.44447C12.2538 7.2831 11.8902 6.80135 11.6736 6.52364C11.2398 5.96743 10.647 5.22834 10.0076 4.49145C9.365 3.75083 8.68992 3.02954 8.09019 2.49929C7.78946 2.23341 7.52529 2.03138 7.3073 1.89988C7.10228 1.77621 6.98117 1.75049 6.98117 1.75049C6.98117 1.75049 6.86362 1.77621 6.65861 1.89988C6.44062 2.03137 6.17645 2.23341 5.87573 2.49929C5.276 3.02953 4.60091 3.75083 3.95828 4.49146C3.31888 5.22836 2.72614 5.96746 2.29234 6.52368C2.07575 6.80139 1.71258 7.28245 1.59077 7.44383C1.34529 7.77735 0.875583 7.84929 0.542271 7.60365C0.208959 7.35802 0.137755 6.88852 0.383233 6.555L0.385259 6.55231C0.513124 6.38292 0.889635 5.88411 1.11056 5.60083C1.55416 5.03205 2.1642 4.27115 2.82634 3.50804C3.48524 2.74867 4.21046 1.96997 4.88315 1.37521C5.21864 1.07859 5.55871 0.811878 5.88467 0.615252C6.19006 0.431036 6.57671 0.249752 6.98296 0.249756C7.38921 0.249759 7.77586 0.431042 8.08124 0.615258C8.4072 0.811884 8.74727 1.0786 9.08276 1.37522C9.75546 1.96997 10.4807 2.74866 11.1396 3.50803C11.8017 4.27112 12.4118 5.03202 12.8553 5.6008C13.0765 5.88433 13.4531 6.38333 13.5807 6.55226L13.5823 6.55447C13.8278 6.88799 13.757 7.35797 13.4236 7.6036C13.0903 7.84923 12.6211 7.77797 12.3757 7.44447Z" fill="white"/>
</g>
</svg>
