<svg width="14" height="8" viewBox="0 0 14 8" fill="none" xmlns="http://www.w3.org/2000/svg">
<g id="elements">
<path id="Icon" d="M12.3757 0.555285C12.2538 0.716659 11.8902 1.1984 11.6736 1.47611C11.2398 2.03233 10.647 2.77142 10.0076 3.50831C9.365 4.24893 8.68992 4.97022 8.09019 5.50046C7.78946 5.76634 7.52529 5.96838 7.3073 6.09987C7.10228 6.22355 6.98117 6.24927 6.98117 6.24927C6.98117 6.24927 6.86362 6.22355 6.65861 6.09988C6.44062 5.96838 6.17645 5.76635 5.87573 5.50047C5.276 4.97022 4.60091 4.24892 3.95828 3.5083C3.31888 2.7714 2.72614 2.0323 2.29234 1.47608C2.07575 1.19837 1.71258 0.717304 1.59077 0.555928C1.34529 0.222405 0.875583 0.150469 0.542271 0.396102C0.208959 0.641735 0.137755 1.11123 0.383233 1.44476L0.385259 1.44744C0.513124 1.61684 0.889635 2.11565 1.11056 2.39892C1.55416 2.9677 2.1642 3.72861 2.82634 4.49171C3.48524 5.25109 4.21046 6.02979 4.88315 6.62454C5.21864 6.92116 5.55871 7.18788 5.88467 7.3845C6.19006 7.56872 6.57671 7.75 6.98296 7.75C7.38921 7.75 7.77586 7.56871 8.08124 7.3845C8.4072 7.18787 8.74727 6.92116 9.08276 6.62454C9.75546 6.02979 10.4807 5.2511 11.1396 4.49173C11.8017 3.72863 12.4118 2.96774 12.8553 2.39896C13.0765 2.11542 13.4531 1.61643 13.5807 1.44749L13.5823 1.44528C13.8278 1.11176 13.757 0.641786 13.4236 0.396152C13.0903 0.150525 12.6211 0.221791 12.3757 0.555285Z" fill="#15CF79"/>
</g>
</svg>
