<svg width="48" height="49" viewBox="0 0 48 49" fill="none" xmlns="http://www.w3.org/2000/svg">
<path d="M0 24.041C0 10.7862 10.7452 0.0410156 24 0.0410156C37.2548 0.0410156 48 10.7862 48 24.041C48 37.2958 37.2548 48.041 24 48.041C10.7452 48.041 0 37.2958 0 24.041Z" fill="#15B86C"/>
<path fill-rule="evenodd" clip-rule="evenodd" d="M18.3188 14.3285C18.0384 13.8254 17.5871 13.4447 17.0204 13.3276C16.4478 13.2092 15.8722 13.3838 15.3992 13.7693C13.6828 15.1683 12.59 17.4095 13.0643 19.7608C13.3558 21.206 13.8416 22.632 14.8307 24.3567C16.8158 27.818 19.9228 30.9268 23.3882 32.9142C25.1129 33.9033 26.5389 34.389 27.9841 34.6806C30.3354 35.1549 32.5766 34.0621 33.9755 32.3457C34.3611 31.8727 34.5357 31.2971 34.4173 30.7245C34.3002 30.1578 33.9195 29.7065 33.4164 29.4261L31.814 28.5329C31.2238 28.2039 30.7271 27.927 30.2953 27.7462C29.8373 27.5544 29.3856 27.4405 28.8863 27.4926C28.3869 27.5447 27.9685 27.7493 27.5599 28.0315C27.1747 28.2975 26.7458 28.6709 26.2362 29.1146L23.6772 31.3424C20.7782 29.5738 18.1693 26.9637 16.4024 24.0677L18.6303 21.5087C19.074 20.9991 19.4474 20.5702 19.7134 20.185C19.9956 19.7764 20.2002 19.358 20.2523 18.8586C20.3044 18.3593 20.1905 17.9076 19.9987 17.4496C19.8179 17.0178 19.541 16.5211 19.212 15.9309L18.3188 14.3285ZM28.2808 33.2102C27.2552 33.0033 26.2407 32.6896 25.0743 32.1149L27.1901 30.2729C27.739 29.7951 28.1046 29.4782 28.4123 29.2658C28.7043 29.0641 28.883 29.0011 29.0419 28.9845C29.2007 28.9679 29.3885 28.9927 29.7159 29.1298C30.0608 29.2742 30.484 29.5089 31.1196 29.8632L32.6861 30.7363C32.8769 30.8427 32.9342 30.9597 32.9484 31.0281C32.9613 31.0906 32.9604 31.217 32.8128 31.398C31.6891 32.7768 29.9768 33.5523 28.2808 33.2102ZM17.472 20.5548L15.63 22.6706C15.0553 21.5042 14.7416 20.4897 14.5347 19.4641C14.1926 17.7681 14.9681 16.0558 16.3469 14.9321C16.5279 14.7845 16.6543 14.7836 16.7168 14.7965C16.7852 14.8107 16.9022 14.8679 17.0086 15.0588L17.8817 16.6253C18.236 17.2609 18.4707 17.6841 18.6151 18.029C18.7522 18.3563 18.777 18.5442 18.7604 18.703C18.7438 18.8619 18.6808 19.0406 18.4791 19.3326C18.2667 19.6403 17.9498 20.0059 17.472 20.5548Z" fill="white"/>
<path d="M26.4536 15.0413C26.4536 14.627 26.1178 14.2913 25.7036 14.2913C25.2894 14.2913 24.9536 14.627 24.9536 15.0413V17.8413C24.9536 18.2555 25.2894 18.5913 25.7036 18.5913C26.1178 18.5913 26.4536 18.2555 26.4536 17.8413V15.0413Z" fill="white"/>
<path d="M31.1841 17.6224C31.477 17.3295 31.477 16.8546 31.1841 16.5617C30.8912 16.2688 30.4164 16.2688 30.1235 16.5617L28.1436 18.5416C27.8507 18.8345 27.8507 19.3094 28.1436 19.6023C28.4365 19.8952 28.9113 19.8952 29.2042 19.6023L31.1841 17.6224Z" fill="white"/>
<path d="M29.9036 21.2913C29.4894 21.2913 29.1536 21.627 29.1536 22.0413C29.1536 22.4555 29.4894 22.7913 29.9036 22.7913L32.7036 22.7913C33.1178 22.7913 33.4536 22.4555 33.4536 22.0413C33.4536 21.627 33.1178 21.2913 32.7036 21.2913L29.9036 21.2913Z" fill="white"/>
</svg>
