<svg width="48" height="49" viewBox="0 0 48 49" fill="none" xmlns="http://www.w3.org/2000/svg">
<path d="M0 24.041C0 10.7862 10.7452 0.0410156 24 0.0410156C37.2548 0.0410156 48 10.7862 48 24.041C48 37.2958 37.2548 48.041 24 48.041C10.7452 48.041 0 37.2958 0 24.041Z" fill="#15B86C"/>
<path d="M21.561 22.9254C22.541 23.5024 23.27 23.7914 23.999 23.7914C24.729 23.7914 25.458 23.5034 26.439 22.9254L29.381 21.1854C29.738 20.9754 29.856 20.5154 29.645 20.1584C29.435 19.8014 28.975 19.6834 28.618 19.8944L25.677 21.6334C24.203 22.5004 23.795 22.5004 22.323 21.6334L19.381 19.8934C19.025 19.6824 18.5649 19.8014 18.3539 20.1574C18.1429 20.5134 18.262 20.9734 18.618 21.1844L21.561 22.9254Z" fill="white"/>
<path fill-rule="evenodd" clip-rule="evenodd" d="M21.0797 33.2494C22.0617 33.2744 23.0307 33.2875 23.9997 33.2875C24.9687 33.2875 25.9378 33.2744 26.9198 33.2494L26.9211 33.2494C30.1583 33.1674 31.9419 33.1222 33.2867 31.7784C34.6287 30.4254 34.6657 28.6894 34.7327 25.5364C34.7537 24.5294 34.7537 23.5514 34.7327 22.5444C34.6657 19.3914 34.6287 17.6544 33.2837 16.2994C31.9407 14.9584 30.1568 14.9125 26.9188 14.8305C24.9538 14.7805 23.0437 14.7805 21.0787 14.8305L21.0774 14.8305C17.8402 14.9125 16.0566 14.9577 14.7117 16.3015C13.3697 17.6545 13.3328 19.3905 13.2658 22.5435C13.2448 23.5505 13.2448 24.5285 13.2658 25.5354C13.3328 28.6885 13.3698 30.4255 14.7148 31.7805C16.0578 33.1215 17.8417 33.1674 21.0797 33.2494ZM15.7768 30.7204C14.8558 29.7934 14.8268 28.4484 14.7648 25.5034C14.7438 24.5174 14.7438 23.5594 14.7648 22.5744C14.8268 19.6294 14.8558 18.2855 15.7738 17.3595C16.6927 16.4405 18.0785 16.4054 21.116 16.3284C23.056 16.2784 24.9418 16.2784 26.8808 16.3284C29.9188 16.4054 31.3048 16.4414 32.2218 17.3574C33.1428 18.2844 33.1717 19.6294 33.2337 22.5744C33.2547 23.5604 33.2547 24.5184 33.2337 25.5034C33.1717 28.4484 33.1427 29.7925 32.2247 30.7185C31.3059 31.6373 29.9203 31.6724 26.8835 31.7494L26.8818 31.7494C24.9418 31.7994 23.0568 31.7994 21.1178 31.7494C18.0798 31.6724 16.6938 31.6364 15.7768 30.7204Z" fill="white"/>
</svg>
