<svg width="48" height="49" viewBox="0 0 48 49" fill="none" xmlns="http://www.w3.org/2000/svg">
<path d="M0 24.041C0 10.7862 10.7452 0.0410156 24 0.0410156C37.2548 0.0410156 48 10.7862 48 24.041C48 37.2958 37.2548 48.041 24 48.041C10.7452 48.041 0 37.2958 0 24.041Z" fill="#15B86C"/>
<path fill-rule="evenodd" clip-rule="evenodd" d="M24 18.791C21.6528 18.791 19.75 20.6938 19.75 23.041C19.75 25.3882 21.6528 27.291 24 27.291C26.3472 27.291 28.25 25.3882 28.25 23.041C28.25 20.6938 26.3472 18.791 24 18.791ZM21.25 23.041C21.25 21.5222 22.4812 20.291 24 20.291C25.5188 20.291 26.75 21.5222 26.75 23.041C26.75 24.5598 25.5188 25.791 24 25.791C22.4812 25.791 21.25 24.5598 21.25 23.041Z" fill="white"/>
<path fill-rule="evenodd" clip-rule="evenodd" d="M24 13.291C18.7245 13.291 14.25 17.6506 14.25 22.9668C14.25 25.6892 15.4019 27.9651 17.0169 29.8435C18.625 31.7138 20.7183 33.2222 22.6782 34.4354L22.6911 34.4434L22.7043 34.4508C23.0996 34.6739 23.546 34.791 24 34.791C24.454 34.791 24.9004 34.6739 25.2957 34.4508L25.3072 34.4443L25.3185 34.4374C27.2855 33.2338 29.3793 31.7206 30.9866 29.8448C32.6003 27.9616 33.75 25.6802 33.75 22.9668C33.75 17.6506 29.2755 13.291 24 13.291ZM15.75 22.9668C15.75 18.4974 19.5344 14.791 24 14.791C28.4656 14.791 32.25 18.4974 32.25 22.9668C32.25 25.224 31.3014 27.1722 29.8476 28.8688C28.3908 30.5689 26.4534 31.9834 24.5482 33.1502C24.3809 33.2424 24.1922 33.291 24 33.291C23.8083 33.291 23.6202 33.2427 23.4533 33.151C21.5487 31.971 19.6117 30.5607 18.1543 28.8656C16.7001 27.1742 15.75 25.2322 15.75 22.9668Z" fill="white"/>
</svg>
