<svg width="24" height="25" viewBox="0 0 24 25" fill="none" xmlns="http://www.w3.org/2000/svg">
<g id="fi-rr-angle-small-left">
<path id="Vector" d="M10.5999 13.3504C10.5061 13.2575 10.4317 13.1469 10.381 13.025C10.3302 12.9032 10.3041 12.7725 10.3041 12.6404C10.3041 12.5084 10.3302 12.3777 10.381 12.2559C10.4317 12.134 10.5061 12.0234 10.5999 11.9304L15.1899 7.35044C15.2836 7.25748 15.358 7.14688 15.4088 7.02502C15.4595 6.90316 15.4857 6.77245 15.4857 6.64044C15.4857 6.50843 15.4595 6.37772 15.4088 6.25586C15.358 6.134 15.2836 6.0234 15.1899 5.93044C15.0025 5.74419 14.749 5.63965 14.4849 5.63965C14.2207 5.63965 13.9672 5.74419 13.7799 5.93044L9.18986 10.5204C8.62806 11.0829 8.3125 11.8454 8.3125 12.6404C8.3125 13.4354 8.62806 14.1979 9.18986 14.7604L13.7799 19.3504C13.9661 19.5352 14.2175 19.6393 14.4799 19.6404C14.6115 19.6412 14.7419 19.616 14.8638 19.5662C14.9856 19.5164 15.0964 19.4431 15.1899 19.3504C15.2836 19.2575 15.358 19.1469 15.4088 19.025C15.4595 18.9032 15.4857 18.7725 15.4857 18.6404C15.4857 18.5084 15.4595 18.3777 15.4088 18.2559C15.358 18.134 15.2836 18.0234 15.1899 17.9304L10.5999 13.3504Z" fill="white"/>
</g>
</svg>
