<svg width="24" height="25" viewBox="0 0 24 25" fill="none" xmlns="http://www.w3.org/2000/svg">
<g id="fi-rr-angle-small-right">
<path id="Vector" d="M15.3993 10.5204L10.8093 5.93044C10.622 5.74419 10.3685 5.63965 10.1043 5.63965C9.84013 5.63965 9.58668 5.74419 9.39931 5.93044C9.30559 6.0234 9.23119 6.134 9.18042 6.25586C9.12965 6.37772 9.10352 6.50843 9.10352 6.64044C9.10352 6.77245 9.12965 6.90316 9.18042 7.02502C9.23119 7.14688 9.30559 7.25748 9.39931 7.35044L13.9993 11.9304C14.093 12.0234 14.1674 12.134 14.2182 12.2559C14.269 12.3777 14.2951 12.5084 14.2951 12.6404C14.2951 12.7725 14.269 12.9032 14.2182 13.025C14.1674 13.1469 14.093 13.2575 13.9993 13.3504L9.39931 17.9304C9.21101 18.1174 9.1047 18.3715 9.10376 18.6369C9.10282 18.9023 9.20734 19.1571 9.39431 19.3454C9.58129 19.5337 9.83541 19.6401 10.1008 19.641C10.3661 19.6419 10.621 19.5374 10.8093 19.3504L15.3993 14.7604C15.9611 14.1979 16.2767 13.4354 16.2767 12.6404C16.2767 11.8454 15.9611 11.0829 15.3993 10.5204Z" fill="white"/>
</g>
</svg>
