<svg width="40" height="41" viewBox="0 0 40 41" fill="none" xmlns="http://www.w3.org/2000/svg">
<rect y="0.640625" width="40" height="40" rx="20" fill="black" fill-opacity="0.2"/>
<path d="M18.5999 21.3504C18.5061 21.2575 18.4317 21.1469 18.381 21.025C18.3302 20.9032 18.3041 20.7725 18.3041 20.6404C18.3041 20.5084 18.3302 20.3777 18.381 20.2559C18.4317 20.134 18.5061 20.0234 18.5999 19.9304L23.1899 15.3504C23.2836 15.2575 23.358 15.1469 23.4088 15.025C23.4595 14.9032 23.4857 14.7725 23.4857 14.6404C23.4857 14.5084 23.4595 14.3777 23.4088 14.2559C23.358 14.134 23.2836 14.0234 23.1899 13.9304C23.0025 13.7442 22.749 13.6396 22.4849 13.6396C22.2207 13.6396 21.9672 13.7442 21.7799 13.9304L17.1899 18.5204C16.6281 19.0829 16.3125 19.8454 16.3125 20.6404C16.3125 21.4354 16.6281 22.1979 17.1899 22.7604L21.7799 27.3504C21.9661 27.5352 22.2175 27.6393 22.4799 27.6404C22.6115 27.6412 22.7419 27.616 22.8638 27.5662C22.9856 27.5164 23.0964 27.4431 23.1899 27.3504C23.2836 27.2575 23.358 27.1469 23.4088 27.025C23.4595 26.9032 23.4857 26.7725 23.4857 26.6404C23.4857 26.5084 23.4595 26.3777 23.4088 26.2559C23.358 26.134 23.2836 26.0234 23.1899 25.9304L18.5999 21.3504Z" fill="white"/>
</svg>
