<svg width="51" height="51" viewBox="0 0 51 51" fill="none" xmlns="http://www.w3.org/2000/svg">
<circle cx="25.1953" cy="25.0781" r="25" fill="white" fill-opacity="0.06"/>
<path d="M36.0006 27.6996V20.5156C35.999 19.19 35.4718 17.9192 34.5344 16.9818C33.5971 16.0445 32.3262 15.5172 31.0006 15.5156H21.0006C19.675 15.5172 18.4042 16.0445 17.4669 16.9818C16.5295 17.9192 16.0022 19.19 16.0006 20.5156V27.6996C15.3339 27.9344 14.7719 28.3976 14.414 29.0072C14.0561 29.6167 13.9255 30.3332 14.0452 31.0298C14.165 31.7264 14.5275 32.3581 15.0684 32.8131C15.6093 33.2681 16.2938 33.517 17.0006 33.5156H35.0006C35.7075 33.517 36.392 33.2681 36.9329 32.8131C37.4738 32.3581 37.8362 31.7264 37.956 31.0298C38.0758 30.3332 37.9452 29.6167 37.5873 29.0072C37.2294 28.3976 36.6673 27.9344 36.0006 27.6996ZM21.0006 17.5156H31.0006C31.7963 17.5156 32.5593 17.8317 33.122 18.3943C33.6846 18.9569 34.0006 19.72 34.0006 20.5156V27.5156H29.8496C29.5588 27.5154 29.2714 27.5787 29.0075 27.701C28.7436 27.8232 28.5095 28.0016 28.3216 28.2236L28.0746 28.5156H23.9256L23.6796 28.2236C23.4917 28.0016 23.2577 27.8232 22.9938 27.701C22.7299 27.5787 22.4425 27.5154 22.1516 27.5156H18.0006V20.5156C18.0006 19.72 18.3167 18.9569 18.8793 18.3943C19.4419 17.8317 20.205 17.5156 21.0006 17.5156ZM35.0006 31.5156H17.0006C16.7354 31.5156 16.4811 31.4103 16.2935 31.2227C16.106 31.0352 16.0006 30.7808 16.0006 30.5156C16.0006 30.2504 16.106 29.9961 16.2935 29.8085C16.4811 29.621 16.7354 29.5156 17.0006 29.5156H22.1526L22.3986 29.8076C22.5864 30.0295 22.8203 30.2078 23.084 30.3301C23.3477 30.4524 23.6349 30.5157 23.9256 30.5156H28.0746C28.3655 30.5158 28.6529 30.4526 28.9168 30.3303C29.1807 30.208 29.4147 30.0296 29.6026 29.8076L29.8496 29.5156H35.0006C35.2658 29.5156 35.5202 29.621 35.7077 29.8085C35.8953 29.9961 36.0006 30.2504 36.0006 30.5156C36.0006 30.7808 35.8953 31.0352 35.7077 31.2227C35.5202 31.4103 35.2658 31.5156 35.0006 31.5156Z" fill="white"/>
</svg>
