<svg width="40" height="41" viewBox="0 0 40 41" fill="none" xmlns="http://www.w3.org/2000/svg">
<rect y="0.640625" width="40" height="40" rx="20" fill="black" fill-opacity="0.2"/>
<path d="M23.3993 18.5204L18.8093 13.9304C18.622 13.7442 18.3685 13.6396 18.1043 13.6396C17.8401 13.6396 17.5867 13.7442 17.3993 13.9304C17.3056 14.0234 17.2312 14.134 17.1804 14.2559C17.1297 14.3777 17.1035 14.5084 17.1035 14.6404C17.1035 14.7725 17.1297 14.9032 17.1804 15.025C17.2312 15.1469 17.3056 15.2575 17.3993 15.3504L21.9993 19.9304C22.093 20.0234 22.1674 20.134 22.2182 20.2559C22.269 20.3777 22.2951 20.5084 22.2951 20.6404C22.2951 20.7725 22.269 20.9032 22.2182 21.025C22.1674 21.1469 22.093 21.2575 21.9993 21.3504L17.3993 25.9304C17.211 26.1174 17.1047 26.3715 17.1038 26.6369C17.1028 26.9023 17.2073 27.1571 17.3943 27.3454C17.5813 27.5337 17.8354 27.6401 18.1008 27.641C18.3661 27.6419 18.621 27.5374 18.8093 27.3504L23.3993 22.7604C23.9611 22.1979 24.2767 21.4354 24.2767 20.6404C24.2767 19.8454 23.9611 19.0829 23.3993 18.5204Z" fill="white"/>
</svg>
