<svg width="80" height="81" viewBox="0 0 80 81" fill="none" xmlns="http://www.w3.org/2000/svg">
<g opacity="0.6">
<path opacity="0.1" d="M40 80.6406C33.7224 80.6406 28.5594 75.8684 27.9409 69.7539C23.1799 73.6402 16.1547 73.3638 11.7157 68.9249C7.27679 64.4859 7.00045 57.4607 10.8867 52.6997C4.7722 52.0812 -2.74403e-07 46.9182 0 40.6406C4.96851e-07 34.363 4.77221 29.2 10.8867 28.5815C7.00046 23.8205 7.2768 16.7953 11.7157 12.3563C16.1547 7.91741 23.1799 7.64107 27.9409 11.5273C28.5594 5.41282 33.7224 0.640625 40 0.640625C46.2776 0.640625 51.4406 5.41282 52.0591 11.5273C56.8201 7.64106 63.8453 7.9174 68.2843 12.3563C72.7232 16.7953 72.9995 23.8205 69.1133 28.5815C75.2278 29.2 80 34.363 80 40.6406C80 46.9182 75.2278 52.0812 69.1133 52.6997C72.9996 57.4607 72.7232 64.486 68.2843 68.9249C63.8453 73.3638 56.8201 73.6402 52.0591 69.7539C51.4406 75.8684 46.2776 80.6406 40 80.6406Z" fill="white"/>
</g>
<g clip-path="url(#clip0_2110_8018)">
<path d="M47 29.6406H33C31.6744 29.6422 30.4036 30.1695 29.4662 31.1068C28.5289 32.0442 28.0016 33.315 28 34.6406V42.6406C28.0016 43.9662 28.5289 45.2371 29.4662 46.1744C30.4036 47.1117 31.6744 47.639 33 47.6406H39V49.6406H35C34.7348 49.6406 34.4804 49.746 34.2929 49.9335C34.1054 50.1211 34 50.3754 34 50.6406C34 50.9058 34.1054 51.1602 34.2929 51.3477C34.4804 51.5353 34.7348 51.6406 35 51.6406H45C45.2652 51.6406 45.5196 51.5353 45.7071 51.3477C45.8946 51.1602 46 50.9058 46 50.6406C46 50.3754 45.8946 50.1211 45.7071 49.9335C45.5196 49.746 45.2652 49.6406 45 49.6406H41V47.6406H47C48.3256 47.639 49.5964 47.1117 50.5338 46.1744C51.4711 45.2371 51.9984 43.9662 52 42.6406V34.6406C51.9984 33.315 51.4711 32.0442 50.5338 31.1068C49.5964 30.1695 48.3256 29.6422 47 29.6406ZM33 31.6406H47C47.7956 31.6406 48.5587 31.9567 49.1213 32.5193C49.6839 33.0819 50 33.845 50 34.6406V41.6406H30V34.6406C30 33.845 30.3161 33.0819 30.8787 32.5193C31.4413 31.9567 32.2044 31.6406 33 31.6406ZM47 45.6406H33C32.3817 45.6381 31.7794 45.4445 31.2753 45.0865C30.7712 44.7285 30.3901 44.2235 30.184 43.6406H49.816C49.6099 44.2235 49.2288 44.7285 48.7247 45.0865C48.2206 45.4445 47.6183 45.6381 47 45.6406Z" fill="white"/>
</g>
<defs>
<clipPath id="clip0_2110_8018">
<rect width="24" height="24" fill="white" transform="translate(28 28.6406)"/>
</clipPath>
</defs>
</svg>
