<svg width="80" height="81" viewBox="0 0 80 81" fill="none" xmlns="http://www.w3.org/2000/svg">
<g opacity="0.6">
<path opacity="0.1" d="M40 80.6406C33.7224 80.6406 28.5594 75.8684 27.9409 69.7539C23.1799 73.6402 16.1547 73.3638 11.7157 68.9249C7.27679 64.4859 7.00045 57.4607 10.8867 52.6997C4.7722 52.0812 -2.74403e-07 46.9182 0 40.6406C4.96851e-07 34.363 4.77221 29.2 10.8867 28.5815C7.00046 23.8205 7.2768 16.7953 11.7157 12.3563C16.1547 7.91741 23.1799 7.64107 27.9409 11.5273C28.5594 5.41282 33.7224 0.640625 40 0.640625C46.2776 0.640625 51.4406 5.41282 52.0591 11.5273C56.8201 7.64106 63.8453 7.9174 68.2843 12.3563C72.7232 16.7953 72.9995 23.8205 69.1133 28.5815C75.2278 29.2 80 34.363 80 40.6406C80 46.9182 75.2278 52.0812 69.1133 52.6997C72.9996 57.4607 72.7232 64.486 68.2843 68.9249C63.8453 73.3638 56.8201 73.6402 52.0591 69.7539C51.4406 75.8684 46.2776 80.6406 40 80.6406Z" fill="white"/>
</g>
<g clip-path="url(#clip0_2110_8016)">
<path d="M51.229 29.4117C50.7564 28.9416 50.1234 28.6678 49.4571 28.6455C48.7908 28.6233 48.1409 28.8541 47.638 29.2917L33.472 41.7737C31.137 42.2137 28 43.5147 28 46.2407C28.0019 47.9376 28.6767 49.5644 29.8766 50.7642C31.0764 51.964 32.7032 52.6389 34.4 52.6407C37.125 52.6407 38.427 49.5047 38.867 47.1697L51.352 32.9987C51.7887 32.496 52.0188 31.8466 51.996 31.1811C51.9732 30.5155 51.6991 29.8834 51.229 29.4117ZM38.141 44.9677L35.673 42.4997L37.678 40.7327L39.908 42.9627L38.141 44.9677ZM34.4 50.6407C33.2335 50.6394 32.1151 50.1754 31.2902 49.3506C30.4653 48.5257 30.0013 47.4073 30 46.2407C30 44.7327 32.639 43.9537 34.049 43.7037L36.937 46.5907C36.686 48.0017 35.908 50.6407 34.4 50.6407ZM49.849 31.6807L41.233 41.4587L39.181 39.4077L48.956 30.7947C49.0764 30.6915 49.2312 30.6373 49.3897 30.643C49.5482 30.6487 49.6988 30.7139 49.8114 30.8257C49.924 30.9374 49.9904 31.0874 49.9973 31.2458C50.0043 31.4043 49.9513 31.5596 49.849 31.6807Z" fill="white"/>
</g>
<defs>
<clipPath id="clip0_2110_8016">
<rect width="24" height="24" fill="white" transform="translate(28 28.6406)"/>
</clipPath>
</defs>
</svg>
