<svg width="80" height="81" viewBox="0 0 80 81" fill="none" xmlns="http://www.w3.org/2000/svg">
<g opacity="0.6">
<path opacity="0.1" d="M40 80.6406C33.7224 80.6406 28.5594 75.8684 27.9409 69.7539C23.1799 73.6402 16.1547 73.3638 11.7157 68.9249C7.27679 64.4859 7.00045 57.4607 10.8867 52.6997C4.7722 52.0812 -2.74403e-07 46.9182 0 40.6406C4.96851e-07 34.363 4.77221 29.2 10.8867 28.5815C7.00046 23.8205 7.2768 16.7953 11.7157 12.3563C16.1547 7.91741 23.1799 7.64107 27.9409 11.5273C28.5594 5.41282 33.7224 0.640625 40 0.640625C46.2776 0.640625 51.4406 5.41282 52.0591 11.5273C56.8201 7.64106 63.8453 7.9174 68.2843 12.3563C72.7232 16.7953 72.9995 23.8205 69.1133 28.5815C75.2278 29.2 80 34.363 80 40.6406C80 46.9182 75.2278 52.0812 69.1133 52.6997C72.9996 57.4607 72.7232 64.486 68.2843 68.9249C63.8453 73.3638 56.8201 73.6402 52.0591 69.7539C51.4406 75.8684 46.2776 80.6406 40 80.6406Z" fill="white"/>
</g>
<g clip-path="url(#clip0_2110_8019)">
<path d="M51 50.6406H33C32.2044 50.6406 31.4413 50.3246 30.8787 49.7619C30.3161 49.1993 30 48.4363 30 47.6406V29.6406C30 29.3754 29.8946 29.1211 29.7071 28.9335C29.5196 28.746 29.2652 28.6406 29 28.6406C28.7348 28.6406 28.4804 28.746 28.2929 28.9335C28.1054 29.1211 28 29.3754 28 29.6406V47.6406C28.0016 48.9662 28.5289 50.2371 29.4662 51.1744C30.4036 52.1117 31.6744 52.639 33 52.6406H51C51.2652 52.6406 51.5196 52.5353 51.7071 52.3477C51.8946 52.1602 52 51.9058 52 51.6406C52 51.3754 51.8946 51.1211 51.7071 50.9335C51.5196 50.746 51.2652 50.6406 51 50.6406Z" fill="white"/>
<path d="M34 48.6406C34.2652 48.6406 34.5196 48.5353 34.7071 48.3477C34.8946 48.1602 35 47.9058 35 47.6406V40.6406C35 40.3754 34.8946 40.1211 34.7071 39.9335C34.5196 39.746 34.2652 39.6406 34 39.6406C33.7348 39.6406 33.4804 39.746 33.2929 39.9335C33.1054 40.1211 33 40.3754 33 40.6406V47.6406C33 47.9058 33.1054 48.1602 33.2929 48.3477C33.4804 48.5353 33.7348 48.6406 34 48.6406Z" fill="white"/>
<path d="M38 38.6406V47.6406C38 47.9058 38.1054 48.1602 38.2929 48.3477C38.4804 48.5353 38.7348 48.6406 39 48.6406C39.2652 48.6406 39.5196 48.5353 39.7071 48.3477C39.8947 48.1602 40 47.9058 40 47.6406V38.6406C40 38.3754 39.8947 38.1211 39.7071 37.9335C39.5196 37.746 39.2652 37.6406 39 37.6406C38.7348 37.6406 38.4804 37.746 38.2929 37.9335C38.1054 38.1211 38 38.3754 38 38.6406Z" fill="white"/>
<path d="M43 41.6406V47.6406C43 47.9058 43.1054 48.1602 43.2929 48.3477C43.4804 48.5353 43.7348 48.6406 44 48.6406C44.2652 48.6406 44.5196 48.5353 44.7071 48.3477C44.8947 48.1602 45 47.9058 45 47.6406V41.6406C45 41.3754 44.8947 41.1211 44.7071 40.9335C44.5196 40.746 44.2652 40.6406 44 40.6406C43.7348 40.6406 43.4804 40.746 43.2929 40.9335C43.1054 41.1211 43 41.3754 43 41.6406Z" fill="white"/>
<path d="M48 37.6406V47.6406C48 47.9058 48.1054 48.1602 48.2929 48.3477C48.4804 48.5353 48.7348 48.6406 49 48.6406C49.2652 48.6406 49.5196 48.5353 49.7071 48.3477C49.8947 48.1602 50 47.9058 50 47.6406V37.6406C50 37.3754 49.8947 37.1211 49.7071 36.9335C49.5196 36.746 49.2652 36.6406 49 36.6406C48.7348 36.6406 48.4804 36.746 48.2929 36.9335C48.1054 37.1211 48 37.3754 48 37.6406Z" fill="white"/>
<path d="M33.9998 37.6405C34.265 37.6405 34.5193 37.5351 34.7068 37.3475L38.2928 33.7615C38.4834 33.58 38.7365 33.4787 38.9998 33.4787C39.263 33.4787 39.5162 33.58 39.7068 33.7615L41.8788 35.9335C42.4414 36.496 43.2043 36.8119 43.9998 36.8119C44.7953 36.8119 45.5582 36.496 46.1208 35.9335L51.7068 30.3475C51.8889 30.1589 51.9897 29.9063 51.9875 29.6441C51.9852 29.3819 51.88 29.1311 51.6946 28.9457C51.5092 28.7603 51.2584 28.6551 50.9962 28.6529C50.734 28.6506 50.4814 28.7514 50.2928 28.9335L44.7068 34.5185C44.5193 34.706 44.265 34.8113 43.9998 34.8113C43.7346 34.8113 43.4803 34.706 43.2928 34.5185L41.1208 32.3475C40.5582 31.7851 39.7953 31.4692 38.9998 31.4692C38.2043 31.4692 37.4414 31.7851 36.8788 32.3475L33.2928 35.9335C33.153 36.0734 33.0578 36.2516 33.0192 36.4455C32.9806 36.6395 33.0004 36.8405 33.0761 37.0232C33.1518 37.2059 33.2799 37.3621 33.4443 37.4719C33.6087 37.5818 33.802 37.6405 33.9998 37.6405Z" fill="white"/>
</g>
<defs>
<clipPath id="clip0_2110_8019">
<rect width="24" height="24" fill="white" transform="translate(28 28.6406)"/>
</clipPath>
</defs>
</svg>
