<svg width="80" height="81" viewBox="0 0 80 81" fill="none" xmlns="http://www.w3.org/2000/svg">
<g opacity="0.6">
<path opacity="0.1" d="M40 80.6406C33.7224 80.6406 28.5594 75.8684 27.9409 69.7539C23.1799 73.6402 16.1547 73.3638 11.7157 68.9249C7.27679 64.4859 7.00045 57.4607 10.8867 52.6997C4.7722 52.0812 -2.74403e-07 46.9182 0 40.6406C4.96851e-07 34.363 4.77221 29.2 10.8867 28.5815C7.00046 23.8205 7.2768 16.7953 11.7157 12.3563C16.1547 7.91741 23.1799 7.64107 27.9409 11.5273C28.5594 5.41282 33.7224 0.640625 40 0.640625C46.2776 0.640625 51.4406 5.41282 52.0591 11.5273C56.8201 7.64106 63.8453 7.9174 68.2843 12.3563C72.7232 16.7953 72.9995 23.8205 69.1133 28.5815C75.2278 29.2 80 34.363 80 40.6406C80 46.9182 75.2278 52.0812 69.1133 52.6997C72.9996 57.4607 72.7232 64.486 68.2843 68.9249C63.8453 73.3638 56.8201 73.6402 52.0591 69.7539C51.4406 75.8684 46.2776 80.6406 40 80.6406Z" fill="white"/>
</g>
<g clip-path="url(#clip0_2110_8017)">
<path d="M51.7058 50.9344L45.7368 44.9654C47.3634 42.976 48.1632 40.4375 47.9707 37.8749C47.7781 35.3124 46.608 32.9219 44.7024 31.1979C42.7968 29.4739 40.3014 28.5483 37.7324 28.6125C35.1635 28.6767 32.7175 29.7259 30.9004 31.543C29.0833 33.3601 28.0342 35.8061 27.9699 38.375C27.9057 40.944 28.8313 43.4393 30.5553 45.345C32.2793 47.2506 34.6698 48.4207 37.2324 48.6132C39.7949 48.8058 42.3334 48.006 44.3228 46.3794L50.2918 52.3484C50.4804 52.5305 50.733 52.6313 50.9952 52.6291C51.2574 52.6268 51.5082 52.5216 51.6936 52.3362C51.879 52.1508 51.9842 51.9 51.9865 51.6378C51.9888 51.3756 51.888 51.123 51.7058 50.9344ZM37.9988 46.6414C36.4166 46.6414 34.8698 46.1722 33.5542 45.2931C32.2387 44.4141 31.2133 43.1647 30.6078 41.7029C30.0023 40.241 29.8438 38.6325 30.1525 37.0807C30.4612 35.5288 31.2231 34.1033 32.342 32.9845C33.4608 31.8657 34.8862 31.1038 36.4381 30.7951C37.9899 30.4864 39.5985 30.6448 41.0603 31.2503C42.5221 31.8558 43.7715 32.8812 44.6506 34.1968C45.5296 35.5124 45.9988 37.0591 45.9988 38.6414C45.9964 40.7624 45.1528 42.7958 43.653 44.2956C42.1533 45.7954 40.1198 46.639 37.9988 46.6414Z" fill="white"/>
</g>
<defs>
<clipPath id="clip0_2110_8017">
<rect width="24" height="24" fill="white" transform="translate(28 28.6406)"/>
</clipPath>
</defs>
</svg>
