<svg width="25" height="25" viewBox="0 0 25 25" fill="none" xmlns="http://www.w3.org/2000/svg">
<g id="instagram">
<path id="Vector" d="M3.29492 12.041C3.29492 7.56268 3.29492 5.32351 4.68616 3.93226C6.07741 2.54102 8.31658 2.54102 12.7949 2.54102C17.2732 2.54102 19.5124 2.54102 20.9037 3.93226C22.2949 5.32351 22.2949 7.56268 22.2949 12.041C22.2949 16.5193 22.2949 18.7585 20.9037 20.1498C19.5124 21.541 17.2732 21.541 12.7949 21.541C8.31658 21.541 6.07741 21.541 4.68616 20.1498C3.29492 18.7585 3.29492 16.5193 3.29492 12.041Z" stroke="white" stroke-width="1.5" stroke-linejoin="round"/>
<path id="Vector_2" d="M17.2949 12.041C17.2949 14.5263 15.2802 16.541 12.7949 16.541C10.3096 16.541 8.29492 14.5263 8.29492 12.041C8.29492 9.55574 10.3096 7.54102 12.7949 7.54102C15.2802 7.54102 17.2949 9.55574 17.2949 12.041Z" stroke="white" stroke-width="1.5"/>
<path id="Vector_3" d="M18.3039 6.54102H18.2949" stroke="white" stroke-width="2" stroke-linecap="round" stroke-linejoin="round"/>
</g>
</svg>
