<svg width="25" height="25" viewBox="0 0 25 25" fill="none" xmlns="http://www.w3.org/2000/svg">
<g id="linkedin-02">
<path id="Vector" d="M5.29492 9.54102H4.79492C3.85211 9.54102 3.38071 9.54102 3.08781 9.83391C2.79492 10.1268 2.79492 10.5982 2.79492 11.541V20.041C2.79492 20.9838 2.79492 21.4552 3.08781 21.7481C3.38071 22.041 3.85211 22.041 4.79492 22.041H5.29492C6.23773 22.041 6.70913 22.041 7.00203 21.7481C7.29492 21.4552 7.29492 20.9838 7.29492 20.041V11.541C7.29492 10.5982 7.29492 10.1268 7.00203 9.83391C6.70913 9.54102 6.23773 9.54102 5.29492 9.54102Z" stroke="white" stroke-width="1.5"/>
<path id="Vector_2" d="M7.29492 4.29102C7.29492 5.53366 6.28756 6.54102 5.04492 6.54102C3.80228 6.54102 2.79492 5.53366 2.79492 4.29102C2.79492 3.04838 3.80228 2.04102 5.04492 2.04102C6.28756 2.04102 7.29492 3.04838 7.29492 4.29102Z" stroke="white" stroke-width="1.5"/>
<path id="Vector_3" d="M13.1209 9.54102H12.2949C11.3521 9.54102 10.8807 9.54102 10.5878 9.83391C10.2949 10.1268 10.2949 10.5982 10.2949 11.541V20.041C10.2949 20.9838 10.2949 21.4552 10.5878 21.7481C10.8807 22.041 11.3521 22.041 12.2949 22.041H12.7949C13.7377 22.041 14.2091 22.041 14.502 21.7481C14.7949 21.4552 14.7949 20.9838 14.7949 20.041L14.795 16.5411C14.795 14.8843 15.323 13.5411 16.8828 13.5411C17.6626 13.5411 18.2949 14.2127 18.2949 15.0411V19.5411C18.2949 20.4839 18.2949 20.9553 18.5878 21.2482C18.8806 21.5411 19.3521 21.5411 20.2949 21.5411H20.7936C21.7362 21.5411 22.2075 21.5411 22.5004 21.2483C22.7933 20.9555 22.7934 20.4842 22.7936 19.5416L22.795 14.0412C22.795 11.556 20.4313 9.54126 18.0917 9.54126C16.7598 9.54126 15.5716 10.1941 14.795 11.215C14.7949 10.5849 14.7949 10.2699 14.6581 10.036C14.5714 9.88788 14.448 9.76455 14.2999 9.67789C14.066 9.54102 13.751 9.54102 13.1209 9.54102Z" stroke="white" stroke-width="1.5" stroke-linejoin="round"/>
</g>
</svg>
