<svg width="24" height="25" viewBox="0 0 24 25" fill="none" xmlns="http://www.w3.org/2000/svg">
<g clip-path="url(#clip0_2170_90435)">
<path d="M12 24.041C18.6274 24.041 24 18.6684 24 12.041C24 5.4136 18.6274 0.0410156 12 0.0410156C5.37258 0.0410156 0 5.4136 0 12.041C0 18.6684 5.37258 24.041 12 24.041Z" fill="#6DA544"/>
<path d="M6.78125 14.3887C6.78125 15.2531 7.48203 15.9539 8.34645 15.9539H13.0421C13.0421 16.6742 13.6261 17.2582 14.3465 17.2582H15.9117C16.632 17.2582 17.216 16.6742 17.216 15.9539V14.3887H6.78125Z" fill="#F0F0F0"/>
<path d="M17.3462 6.82422V10.4764C17.3462 11.0518 16.8781 11.5199 16.3027 11.5199V13.0851C17.7412 13.0851 18.9114 11.9148 18.9114 10.4764V6.82422H17.3462Z" fill="#F0F0F0"/>
<path d="M6.12942 10.4764C6.12942 11.0518 5.66133 11.5199 5.08594 11.5199V13.0851C6.52439 13.0851 7.69462 11.9148 7.69462 10.4764V6.82422H6.12942V10.4764Z" fill="#F0F0F0"/>
<path d="M16.5652 6.82422H15V10.4764H16.5652V6.82422Z" fill="#F0F0F0"/>
<path d="M12.6505 8.91119C12.6505 9.05505 12.5334 9.17205 12.3896 9.17205C12.2458 9.17205 12.1287 9.055 12.1287 8.91119V6.82422H10.5635V8.91119C10.5635 9.05505 10.4465 9.17205 10.3027 9.17205C10.1589 9.17205 10.0418 9.055 10.0418 8.91119V6.82422H8.47656V8.91119C8.47656 9.91811 9.29575 10.7373 10.3027 10.7373C10.6905 10.7373 11.0501 10.6154 11.3462 10.4084C11.6422 10.6154 12.0019 10.7373 12.3896 10.7373C12.4677 10.7373 12.5445 10.7318 12.62 10.7222C12.5091 11.1792 12.0976 11.5199 11.607 11.5199V13.0851C13.0455 13.0851 14.2157 11.9148 14.2157 10.4764V8.91119V6.82422H12.6505V8.91119H12.6505Z" fill="#F0F0F0"/>
<path d="M10.8244 11.5195H8.47656V13.0847H10.8244V11.5195Z" fill="#F0F0F0"/>
</g>
<defs>
<clipPath id="clip0_2170_90435">
<rect width="24" height="24" fill="white" transform="translate(0 0.0410156)"/>
</clipPath>
</defs>
</svg>
