<svg width="25" height="25" viewBox="0 0 25 25" fill="none" xmlns="http://www.w3.org/2000/svg">
<g id="snapchat">
<path id="Vector" d="M7.37048 7.46546C7.37048 4.46963 9.79908 2.04102 12.7949 2.04102C15.7907 2.04102 18.2193 4.46963 18.2193 7.46546C18.2193 12.2132 18.456 14.5866 22.7949 16.4854C20.5727 17.041 20.0171 17.5966 19.4616 19.8188C15.5727 19.8188 15.0171 22.041 12.7949 22.041C10.5727 22.041 10.0171 19.8188 6.12825 19.8188C5.5727 17.5966 5.01714 17.041 2.79492 16.4854C7.13381 14.5866 7.37048 12.2132 7.37048 7.46546Z" stroke="white" stroke-width="1.5" stroke-linecap="round" stroke-linejoin="round"/>
<path id="Vector_2" d="M2.79492 16.041C6.61848 13.9581 6.61848 11.9913 3.75081 9.04102" stroke="white" stroke-width="1.5" stroke-linecap="round"/>
<path id="Vector_3" d="M22.795 16.041C18.9714 13.9581 18.9714 11.9913 21.8391 9.04102" stroke="white" stroke-width="1.5" stroke-linecap="round"/>
</g>
</svg>
