<svg width="17" height="15" viewBox="0 0 17 15" fill="none" xmlns="http://www.w3.org/2000/svg">
<path id="Vector" d="M12.9733 0.208008H3.63997C2.75624 0.209066 1.90901 0.560596 1.28412 1.18549C0.659229 1.81038 0.307699 2.65761 0.306641 3.54134L0.306641 11.5413C0.307699 12.4251 0.659229 13.2723 1.28412 13.8972C1.90901 14.5221 2.75624 14.8736 3.63997 14.8747H12.9733C13.857 14.8736 14.7043 14.5221 15.3292 13.8972C15.9541 13.2723 16.3056 12.4251 16.3066 11.5413V3.54134C16.3056 2.65761 15.9541 1.81038 15.3292 1.18549C14.7043 0.560596 13.857 0.209066 12.9733 0.208008ZM3.63997 1.54134H12.9733C13.3725 1.54213 13.7623 1.66235 14.0926 1.88654C14.4229 2.11074 14.6785 2.42864 14.8266 2.79934L9.72131 7.90534C9.34559 8.27955 8.83692 8.48965 8.30664 8.48965C7.77636 8.48965 7.26769 8.27955 6.89197 7.90534L1.78664 2.79934C1.93474 2.42864 2.19038 2.11074 2.52067 1.88654C2.85096 1.66235 3.24078 1.54213 3.63997 1.54134ZM12.9733 13.5413H3.63997C3.10954 13.5413 2.60083 13.3306 2.22576 12.9556C1.85069 12.5805 1.63997 12.0718 1.63997 11.5413V4.54134L5.94931 8.84801C6.57506 9.47218 7.42281 9.8227 8.30664 9.8227C9.19047 9.8227 10.0382 9.47218 10.664 8.84801L14.9733 4.54134V11.5413C14.9733 12.0718 14.7626 12.5805 14.3875 12.9556C14.0124 13.3306 13.5037 13.5413 12.9733 13.5413Z" fill="#15CF79"/>
</svg>
